<?xml version="1.0" encoding="UTF-8" standalone="no"?>
<svg
   width="4814.0488"
   height="1437.049"
   viewBox="0 0 48140.488 14370.49"
   version="1.1"
   sodipodi:docname="logo.svg"
   inkscape:version="1.1.2 (b8e25be833, 2022-02-05)"
   id="svg36"
   xmlns:inkscape="http://www.inkscape.org/namespaces/inkscape"
   xmlns:sodipodi="http://sodipodi.sourceforge.net/DTD/sodipodi-0.dtd"
   xmlns="http://www.w3.org/2000/svg"
   xmlns:svg="http://www.w3.org/2000/svg">
  <defs
     id="defs40" />
  <sodipodi:namedview
     id="namedview38"
     pagecolor="#ffffff"
     bordercolor="#666666"
     borderopacity="1.0"
     inkscape:pageshadow="2"
     inkscape:pageopacity="0.0"
     inkscape:pagecheckerboard="0"
     showgrid="false"
     showguides="false"
     inkscape:zoom="4.205116"
     inkscape:cx="1622.6663"
     inkscape:cy="1406.8577"
     inkscape:window-width="2560"
     inkscape:window-height="1334"
     inkscape:window-x="-11"
     inkscape:window-y="-11"
     inkscape:window-maximized="1"
     inkscape:current-layer="svg36"
     width="4814.049px"
     height="1463.049px" />
  <g
     id="l6m972T2hbTTVmqO5SeTUJD"
     fill="#000000"
     transform="translate(-99.51,-9.5122229)">
    <g
       id="g19">
      <path
         id="pijDKiKeU"
         d="m 16880,14145 v -235 h 210 210 v -1470 -1470 h -215 -215 v -230 -230 h 495 495 l 2,212 3,213 46,-65 c 55,-77 161,-184 242,-247 166,-128 424,-183 726,-154 279,27 495,130 675,322 113,119 185,244 241,413 62,190 70,250 69,561 0,254 -2,290 -22,385 -68,311 -208,598 -377,771 -170,173 -373,258 -674,281 -383,29 -670,-59 -869,-265 l -62,-65 v 519 519 h 280 280 v 235 235 h -770 -770 z m 1827,-1431 c 97,-20 186,-60 261,-117 144,-111 257,-332 298,-585 24,-143 14,-373 -20,-507 -68,-267 -232,-457 -460,-532 -70,-23 -97,-27 -201,-26 -105,0 -129,3 -191,26 -141,53 -231,121 -326,247 -64,85 -143,244 -170,345 -29,112 -38,492 -14,611 77,374 448,616 823,538 z" />
      <path
         id="p7OoPdwKB"
         d="m 5300,13199 c -426,-39 -776,-263 -949,-607 -44,-88 -96,-249 -116,-362 -26,-141 -31,-471 -11,-626 45,-345 172,-619 385,-832 234,-233 568,-337 981,-303 305,24 525,121 698,305 158,170 258,369 299,601 27,150 19,475 -13,588 -5,16 -56,17 -890,17 h -884 l 6,43 c 34,246 96,397 213,516 116,118 266,178 471,188 331,15 538,-133 653,-469 4,-11 17,-18 31,-18 20,0 324,60 434,85 28,7 29,44 6,148 -59,257 -246,486 -502,611 -210,103 -500,144 -812,115 z m 717,-1711 c -3,-50 -16,-113 -31,-157 -99,-284 -290,-421 -571,-408 -234,10 -383,111 -499,337 -46,90 -67,147 -90,248 l -14,62 h 605 606 z" />
      <path
         id="pO0wRuZY1"
         d="m 10812,13199 c -491,-44 -875,-334 -1015,-770 -109,-336 -103,-823 15,-1158 87,-247 265,-492 452,-620 206,-142 515,-209 839,-183 310,26 521,120 703,316 178,191 274,409 305,691 13,119 6,312 -14,430 l -12,70 -883,3 -882,2 v 34 c 0,55 29,192 59,276 76,215 218,349 436,412 68,19 102,23 230,22 136,-1 157,-3 225,-28 41,-14 98,-42 126,-61 97,-64 204,-209 244,-331 19,-55 25,-64 46,-64 19,0 334,62 432,85 19,5 22,12 22,49 0,165 -124,407 -282,550 -248,225 -592,315 -1046,275 z m 720,-1694 c -10,-209 -147,-444 -305,-522 -171,-86 -398,-83 -561,5 -74,40 -164,136 -219,233 -47,83 -100,229 -113,309 l -7,40 604,-2 604,-3 z" />
      <path
         id="pVYwwg2j5"
         d="m 15125,13199 c -444,-38 -799,-282 -980,-673 -75,-163 -110,-309 -124,-522 -31,-458 68,-819 310,-1126 225,-285 548,-418 1019,-418 230,0 345,16 520,72 170,55 295,131 416,253 137,139 248,325 315,527 109,330 100,803 -22,1106 -95,239 -274,458 -483,589 -249,158 -591,225 -971,192 z m 393,-490 c 277,-70 470,-301 543,-650 25,-123 30,-323 10,-439 -58,-333 -241,-566 -516,-657 -68,-22 -98,-26 -205,-27 -91,-1 -143,4 -190,17 -247,67 -418,242 -504,517 -108,340 -54,726 139,995 161,226 432,318 723,244 z" />
      <path
         id="p1275R0O78"
         d="m 21295,13201 c -510,-51 -884,-335 -1024,-779 -58,-184 -66,-250 -66,-547 0,-277 7,-343 51,-505 113,-410 394,-731 736,-844 160,-52 399,-75 601,-57 214,20 368,69 515,164 236,153 413,435 467,741 25,145 20,428 -11,579 l -6,27 h -884 c -727,0 -884,2 -884,13 0,43 36,214 61,286 38,113 81,182 164,266 113,113 259,172 456,182 228,12 388,-49 513,-197 61,-71 108,-152 135,-233 13,-39 23,-53 40,-55 19,-3 179,27 395,75 l 69,15 -7,60 c -18,177 -114,365 -257,507 -154,153 -340,245 -579,285 -113,19 -373,28 -485,17 z m 712,-1708 c -13,-167 -109,-367 -220,-457 -95,-77 -215,-116 -357,-116 -323,0 -533,209 -624,623 l -6,27 h 606 607 z" />
      <path
         id="pKPB1TNOa"
         d="m 31864,13199 c -468,-42 -838,-306 -994,-710 -115,-299 -130,-771 -36,-1125 72,-274 241,-530 453,-690 213,-161 523,-234 866,-206 312,26 506,111 689,300 217,225 312,461 325,802 5,145 -13,369 -32,400 -4,7 -317,10 -886,10 h -879 v 31 c 0,49 38,224 64,292 108,288 356,439 696,424 168,-7 277,-48 378,-141 82,-75 162,-202 192,-303 11,-36 17,-43 39,-43 21,0 326,61 430,85 23,6 24,8 18,79 -12,166 -98,335 -247,486 -189,192 -402,284 -718,310 -133,11 -227,11 -358,-1 z m 721,-1701 c -14,-152 -94,-334 -187,-430 -99,-101 -251,-154 -423,-146 -213,11 -354,97 -469,287 -48,80 -107,235 -121,319 l -7,42 h 607 608 z" />
      <path
         id="pva4zp812"
         d="m 34473,13200 c -344,-48 -559,-226 -655,-540 l -22,-75 -4,-812 -3,-813 h -199 -200 v -225 -225 h 200 200 v -405 -405 h 280 280 v 405 405 h 490 490 v 225 225 h -490 -490 v 693 c 0,447 4,714 11,751 23,127 81,213 181,267 59,32 69,34 158,34 86,0 101,-3 160,-31 36,-17 82,-45 102,-62 49,-44 103,-152 129,-258 12,-49 23,-95 25,-101 6,-24 58,-13 247,50 l 189,62 -6,70 c -13,160 -90,363 -181,483 -96,127 -251,224 -421,262 -102,24 -368,35 -471,20 z" />
      <path
         id="pbAcEIiQ5"
         d="m 41093,13200 c -538,-52 -942,-408 -1061,-935 -47,-207 -54,-524 -17,-735 73,-410 314,-768 625,-929 190,-98 401,-141 692,-141 519,0 846,156 1085,518 97,148 161,304 205,502 19,83 22,128 22,350 1,210 -2,270 -17,340 -60,281 -174,497 -358,677 -189,186 -416,297 -689,338 -122,19 -369,26 -487,15 z m 382,-486 c 345,-68 585,-437 585,-899 0,-375 -160,-679 -425,-809 -216,-106 -475,-98 -679,22 -129,75 -230,202 -298,370 -60,149 -73,229 -72,442 0,167 3,195 27,283 32,120 108,282 168,358 169,213 401,291 694,233 z" />
      <path
         id="pbqzJwrDA"
         d="m 210,12895 v -255 H 435 660 V 11250 9860 H 435 210 v -260 -260 h 843 c 884,1 1144,8 1317,35 297,47 536,137 760,286 119,79 310,269 402,399 180,255 293,569 328,909 13,133 13,419 0,552 -46,448 -209,814 -494,1108 -299,307 -658,464 -1166,510 -70,7 -482,11 -1052,11 H 210 Z m 2000,-279 c 380,-74 625,-226 807,-498 146,-220 218,-471 230,-803 22,-610 -213,-1081 -653,-1307 -102,-53 -209,-90 -350,-120 -90,-19 -138,-21 -546,-25 l -448,-4 v 1391 1392 l 438,-5 c 350,-4 454,-8 522,-21 z" />
      <path
         id="pbSJr4dmL"
         d="m 7955,13118 c -9,-18 -229,-508 -490,-1088 l -474,-1055 -151,-3 -150,-3 2,-227 3,-227 h 640 640 l 3,228 2,227 h -181 c -141,0 -180,3 -176,13 55,142 603,1395 608,1389 4,-4 125,-320 267,-702 l 260,-695 -164,-3 -164,-2 v -230 -230 l 603,2 602,3 3,227 2,227 -152,3 -152,3 -466,1087 -465,1088 h -218 -217 z" />
      <path
         id="pa2pFRKkr"
         d="m 12380,12925 v -225 h 205 205 V 11145 9590 h -215 -215 v -230 -230 h 500 500 v 1785 1785 h 205 205 v 225 225 h -695 -695 z" />
      <path
         id="pwgQhBlzj"
         d="m 22910,12925 v -225 l 208,-2 207,-3 v -860 -860 l -218,-3 -217,-2 2,-228 3,-227 h 480 480 l 5,165 c 4,144 7,161 18,136 19,-43 93,-135 154,-192 90,-85 192,-129 331,-144 190,-19 398,19 531,100 l 53,32 52,367 c 28,201 52,376 51,388 0,15 -7,24 -22,27 -40,9 -367,46 -402,46 h -34 l -16,-72 c -8,-40 -30,-140 -49,-223 l -32,-150 -40,-14 c -23,-9 -78,-15 -130,-15 -75,-1 -98,3 -140,24 -74,35 -185,151 -223,231 -66,139 -65,128 -69,837 l -4,642 h 280 281 v 225 225 h -770 -770 z" />
      <path
         id="pNMRk4k5A"
         d="m 26700,12890 v -260 h 210 210 V 11245 9860 h -240 -240 l 2,-257 3,-258 h 460 460 l 952,1245 c 524,685 979,1281 1012,1324 l 61,79 V 10927 9860 h -280 -280 l 2,-257 3,-258 h 780 780 l 3,258 2,257 h -225 -225 v 1645 1645 l -192,-1 h -193 l -995,-1305 c -547,-717 -1016,-1332 -1042,-1366 l -48,-62 v 1107 1107 h 285 285 v 260 260 h -775 -775 z" />
      <path
         id="p13gNwzqca"
         d="m 36181,12082 c -206,-587 -379,-1077 -384,-1089 -10,-22 -15,-23 -139,-23 h -128 v -230 -230 h 655 655 v 230 230 l -213,2 -214,3 212,645 c 116,355 214,654 219,665 5,15 97,-211 355,-875 l 348,-895 191,-3 190,-2 79,187 c 44,104 214,508 379,900 164,391 301,706 303,700 3,-7 86,-307 186,-667 l 182,-655 -209,-3 -208,-2 2,-228 3,-227 618,-3 617,-2 v 230 229 l -137,3 -138,3 -370,1087 -370,1088 h -221 -221 l -364,-895 c -200,-492 -366,-895 -369,-895 -3,1 -163,402 -356,893 l -352,892 -213,2 -214,3 z" />
      <path
         id="p4YZeVop3"
         d="m 42950,12925 v -225 l 208,-2 207,-3 v -860 -860 l -218,-3 -217,-2 2,-228 3,-227 h 480 480 l 5,165 c 4,144 7,161 18,136 19,-43 93,-135 154,-192 90,-85 192,-129 331,-144 190,-19 398,19 531,100 l 53,32 52,367 c 28,201 52,376 51,388 0,15 -7,24 -22,27 -40,9 -367,46 -402,46 h -34 l -16,-72 c -8,-40 -30,-140 -49,-223 l -32,-150 -40,-14 c -23,-9 -78,-15 -130,-15 -75,-1 -98,3 -140,24 -74,35 -185,151 -223,231 -66,139 -65,128 -69,837 l -4,642 h 280 281 v 225 225 h -770 -770 z" />
      <path
         id="pXVptor50"
         d="m 45290,12925 v -225 h 205 205 V 11145 9590 l -212,-2 -213,-3 -3,-227 -2,-228 h 495 495 l 2,1213 3,1212 196,3 195,2 241,-292 240,-293 -164,-3 -163,-2 2,-228 3,-227 643,-3 642,-2 v 230 230 h -177 l -178,1 -309,371 c -170,205 -309,377 -309,383 0,6 177,228 393,493 l 393,482 h 159 158 v 225 225 h -655 -655 v -225 -224 l 149,-3 149,-3 -286,-352 -287,-352 -193,-1 h -192 l 2,353 3,352 168,3 167,2 v 225 225 h -655 -655 z" />
      <path
         id="pEyxem1Bp"
         d="M 99.512223,3864.5122 V 9.5122229 H 7689.5122 15279.512 V 3864.5122 v 3855 H 7689.5122 99.512223 Z m 3679.999977,2100 v -295 h -196 -196 l 5,-652 c 5,-723 3,-700 72,-842 29,-58 59,-100 115,-156 112,-115 217,-157 416,-167 305,-16 470,88 565,357 21,60 23,89 30,355 4,160 8,473 8,698 l 1,407 h -190 c -177,0 -190,1 -200,19 -6,12 -10,124 -10,295 v 276 h 800 800 v -295 -295 h -199 -199 l -5,-792 c -4,-754 -5,-797 -25,-878 -55,-230 -152,-388 -312,-509 -283,-213 -640,-279 -1007,-186 -222,57 -426,199 -553,388 -40,59 -49,67 -77,67 h -33 v -1010 -1010 h -600 -600 v 295 295 h 200 200 v 1670 1670 h -200 -200 v 295 295 h 795 795 z m 3549,-888 c 384,-1364 618,-2187 807,-2851 73,-259 131,-472 128,-475 -3,-3 -175,-7 -382,-9 l -377,-3 -264,933 c -241,850 -349,1232 -841,2963 -87,308 -162,572 -165,587 l -7,27 109,4 c 59,1 232,4 383,5 l 275,2 z m 2673.9998,1171 c 3,-7 104,-267 226,-578 304,-777 427,-1085 459,-1150 25,-51 30,-55 65,-58 l 38,-3 50,105 c 52,112 215,484 541,1234 l 201,462 h 281 c 154,0 286,-4 293,-8 11,-7 180,-487 398,-1132 188,-555 418,-1205 429,-1212 6,-4 68,-8 139,-8 h 127 v -290 -290 h -690 -690 v 290 290 h 195 195 v 36 c 0,33 -155,774 -216,1032 -32,136 -36,144 -82,140 -36,-3 -38,-5 -92,-113 -59,-117 -167,-352 -536,-1160 -125,-275 -233,-503 -239,-507 -5,-4 -109,-8 -231,-8 h -221 l -158,408 c -391,1010 -519.9998,1332 -549.9998,1378 -23,36 -80,34 -98,-3 -42,-84 -357,-1105 -357,-1159 v -44 h 205 205 v -290 -290 h -770 -770 v 290 290 h 134 134 l 15,43 c 223,637 783,2226 798,2265 l 21,52 h 273 c 209,0 274,-3 277.9998,-12 z" />
    </g>
  </g>
  <g
     id="l34Z9ckrDuMgMOZ0ytL4GqB"
     fill="#ffffff"
     transform="translate(-99.51,-9.5122229)">
    <g
       id="g34">
      <path
         id="pfuTz6qWM"
         d="m 18411,12749 c -278,-54 -498,-268 -557,-539 -21,-99 -21,-480 1,-602 35,-201 144,-403 289,-535 65,-59 121,-93 220,-130 65,-25 83,-27 221,-27 137,0 157,2 231,27 228,76 391,265 460,532 35,134 45,408 21,561 -41,256 -154,479 -299,591 -119,91 -261,134 -440,132 -57,-1 -123,-5 -147,-10 z" />
      <path
         id="pLc4wmIAq"
         d="m 4780,11571 c 0,-61 51,-229 99,-326 88,-178 193,-279 339,-326 92,-30 297,-38 396,-15 192,45 326,177 402,397 24,73 42,202 36,267 l -3,32 h -635 -634 z" />
      <path
         id="pZKxOU4an"
         d="m 10290,11576 c 0,-32 43,-198 69,-266 34,-90 109,-208 170,-268 110,-108 231,-152 421,-152 134,0 215,17 307,63 169,83 300,322 306,554 l 2,88 -637,3 -638,2 z" />
      <path
         id="pwMkUf5dG"
         d="m 15185,12756 c -239,-47 -385,-163 -504,-402 -148,-298 -148,-760 1,-1059 70,-141 193,-266 319,-325 116,-54 178,-65 349,-64 140,0 163,3 235,27 227,75 398,253 474,492 44,136 55,223 55,400 -1,124 -6,183 -23,264 -74,351 -265,579 -545,651 -101,26 -272,33 -361,16 z" />
      <path
         id="psg0WdbyY"
         d="m 20767,11563 c 44,-288 189,-531 368,-614 95,-45 167,-59 295,-59 267,0 422,90 529,306 52,106 72,182 78,297 l 6,107 h -641 -641 z" />
      <path
         id="p13Bz6JFLg"
         d="m 31345,11558 c 40,-261 159,-478 320,-584 86,-56 163,-77 311,-82 154,-5 257,15 352,70 159,90 275,308 289,540 l 6,98 h -642 -643 z" />
      <path
         id="pTwXV1uu5"
         d="m 41163,12756 c -241,-46 -391,-165 -505,-403 -87,-181 -123,-395 -107,-633 10,-140 32,-241 77,-353 131,-325 381,-483 737,-464 129,7 203,25 300,73 171,83 313,257 374,458 51,166 66,414 36,609 -55,365 -279,642 -569,702 -106,21 -260,27 -343,11 z" />
      <path
         id="prHjz6fdh"
         d="M 1220,11250 V 9829 l 478,4 c 439,4 485,6 576,25 280,60 496,175 655,348 194,211 302,469 342,814 15,135 7,452 -16,580 -94,532 -389,880 -855,1009 -184,50 -219,53 -712,58 l -468,5 z" />
      <path
         id="pHlySh011"
         d="m 2159.5122,5964.5122 v -325 h 200 200 v -1640 -1640 h -200 -200 v -325 -325 h 630 630 v 1012 1012 l 52,-75 c 136,-193 329,-327 552,-384 316,-80 648,-49 908,87 260,135 400,317 470,608 20,81 21,124 25,878 l 5,792 h 199 199 v 325 325 h -830 -830 v -306 c 0,-191 4,-313 10,-325 10,-18 23,-19 200,-19 h 190 l -1,-377 c 0,-208 -4,-508 -8,-668 -8,-314 -12,-336 -79,-469 -35,-71 -124,-161 -189,-192 -157,-74 -377,-68 -553,13 -82,39 -195,159 -245,259 -69,141 -67,122 -72,812 l -5,622 h 196 196 v 325 325 h -825 -825 z" />
      <path
         id="piqncYYzz"
         d="m 6216.5122,6281.5122 c -30,-3 -37,-7 -33,-20 3,-9 82,-287 175,-617 94,-330 264,-931 379,-1335 115,-404 327,-1155 473,-1667 l 264,-933 395,1 c 217,1 407,4 421,8 l 26,6 -142,500 c -202,706 -431,1518 -816,2883 l -334,1184 -385,-4 c -212,-1 -402,-4 -423,-6 z" />
      <path
         id="ptDQYf6jW"
         d="m 9400.5122,6237.5122 c -15,-39 -575,-1628 -798,-2265 l -15,-43 h -134 -134 v -320 -320 h 800 800 v 320 320 h -205 c -170,0 -205,2 -205,14 0,15 231,761 306,987 24,75 51,144 58,154 13,17 14,17 30,-7 31,-48 154.9998,-358 550.9998,-1380 l 158,-408 h 251 c 138,0 256,4 261,8 6,4 112,228 235,497 496,1088 580,1268 598,1279 25,15 34,-19 176,-685 53,-246 96,-449 96,-453 0,-3 -88,-6 -195,-6 h -195 v -320 -320 h 720 720 v 320 320 h -127 c -71,0 -133,4 -139,8 -11,7 -241,657 -429,1212 -218,645 -387,1125 -398,1132 -7,4 -152,8 -323,8 h -311 l -201,-462 c -326,-752 -489,-1122 -542,-1235 -44,-93 -52,-105 -65,-92 -16,16 -100,213 -198,464 -58,148 -501,1279 -514,1313 -4,9 -74.9998,12 -307.9998,12 h -303 z" />
    </g>
  </g>
</svg>
